<svg xmlns="http://www.w3.org/2000/svg" xmlns:xlink="http://www.w3.org/1999/xlink" fill="currentColor" stroke="currentColor" width="974" zoomAndPan="magnify" viewBox="0 0 730.5 229.499994" height="306" preserveAspectRatio="xMidYMid meet" version="1.0"><defs><g/><clipPath id="30adb8f48a"><path d="M 0.542969 0 L 729.457031 0 L 729.457031 229 L 0.542969 229 Z M 0.542969 0 " clip-rule="nonzero"/></clipPath></defs><g clip-path="url(#30adb8f48a)"><path fill="#000000" d="M 0.542969 0 L 729.957031 0 L 729.957031 235.898438 L 0.542969 235.898438 Z M 0.542969 0 " fill-opacity="1" fill-rule="nonzero"/><path fill="#000000" d="M 0.542969 0 L 729.957031 0 L 729.957031 229.15625 L 0.542969 229.15625 Z M 0.542969 0 " fill-opacity="1" fill-rule="nonzero"/></g><g fill="#10e62c" fill-opacity="1"><g transform="translate(0.693767, 125.724972)"><g><path d="M 30.203125 1 C 20.472656 1 13.441406 -1.410156 9.109375 -6.234375 C 4.785156 -11.066406 2.625 -18.847656 2.625 -29.578125 L 2.625 -40.0625 L 23.71875 -40.0625 L 23.71875 -26.703125 C 23.71875 -21.378906 25.421875 -18.71875 28.828125 -18.71875 C 30.742188 -18.71875 32.078125 -19.28125 32.828125 -20.40625 C 33.578125 -21.53125 33.953125 -23.421875 33.953125 -26.078125 C 33.953125 -29.578125 33.535156 -32.46875 32.703125 -34.75 C 31.867188 -37.039062 30.804688 -38.957031 29.515625 -40.5 C 28.222656 -42.039062 25.914062 -44.429688 22.59375 -47.671875 L 13.359375 -56.921875 C 6.203125 -63.910156 2.625 -71.644531 2.625 -80.125 C 2.625 -89.28125 4.722656 -96.25 8.921875 -101.03125 C 13.128906 -105.820312 19.265625 -108.21875 27.328125 -108.21875 C 36.984375 -108.21875 43.929688 -105.65625 48.171875 -100.53125 C 52.421875 -95.414062 54.546875 -87.410156 54.546875 -76.515625 L 32.703125 -76.515625 L 32.578125 -83.875 C 32.578125 -85.289062 32.179688 -86.410156 31.390625 -87.234375 C 30.597656 -88.066406 29.492188 -88.484375 28.078125 -88.484375 C 26.421875 -88.484375 25.175781 -88.023438 24.34375 -87.109375 C 23.507812 -86.203125 23.09375 -84.957031 23.09375 -83.375 C 23.09375 -79.875 25.085938 -76.253906 29.078125 -72.515625 L 41.5625 -60.53125 C 44.476562 -57.707031 46.890625 -55.023438 48.796875 -52.484375 C 50.710938 -49.941406 52.253906 -46.941406 53.421875 -43.484375 C 54.585938 -40.035156 55.171875 -35.941406 55.171875 -31.203125 C 55.171875 -20.640625 53.234375 -12.628906 49.359375 -7.171875 C 45.492188 -1.722656 39.109375 1 30.203125 1 Z M 30.203125 1 "/></g></g></g><g fill="#10e62c" fill-opacity="1"><g transform="translate(58.229254, 125.724972)"><g/></g></g><g fill="#10e62c" fill-opacity="1"><g transform="translate(87.433814, 125.724972)"><g><path d="M 4.75 0 L 4.75 -107.21875 L 47.671875 -107.21875 L 47.671875 -86.5 L 26.578125 -86.5 L 26.578125 -65.65625 L 46.8125 -65.65625 L 46.8125 -45.4375 L 26.578125 -45.4375 L 26.578125 -20.84375 L 49.046875 -20.84375 L 49.046875 0 Z M 4.75 0 "/></g></g></g><g fill="#10e62c" fill-opacity="1"><g transform="translate(138.853819, 125.724972)"><g/></g></g><g fill="#10e62c" fill-opacity="1"><g transform="translate(168.058379, 125.724972)"><g><path d="M 14.609375 0 L 1.375 -107.34375 L 21.84375 -107.34375 L 29.703125 -34.328125 L 36.6875 -107.34375 L 57.171875 -107.34375 L 43.9375 0 Z M 14.609375 0 "/></g></g></g><g fill="#10e62c" fill-opacity="1"><g transform="translate(226.592315, 125.724972)"><g/></g></g><g fill="#10e62c" fill-opacity="1"><g transform="translate(255.796874, 125.724972)"><g><path d="M 4.75 0 L 4.75 -107.21875 L 47.671875 -107.21875 L 47.671875 -86.5 L 26.578125 -86.5 L 26.578125 -65.65625 L 46.8125 -65.65625 L 46.8125 -45.4375 L 26.578125 -45.4375 L 26.578125 -20.84375 L 49.046875 -20.84375 L 49.046875 0 Z M 4.75 0 "/></g></g></g><g fill="#10e62c" fill-opacity="1"><g transform="translate(307.21688, 125.724972)"><g/></g></g><g fill="#10e62c" fill-opacity="1"><g transform="translate(336.421439, 125.724972)"><g><path d="M 4.75 0 L 4.75 -107.21875 L 26.828125 -107.21875 L 36.6875 -55.921875 L 36.6875 -107.21875 L 57.40625 -107.21875 L 57.40625 0 L 36.4375 0 L 25.71875 -53.671875 L 25.71875 0 Z M 4.75 0 "/></g></g></g><g fill="#10e62c" fill-opacity="1"><g transform="translate(398.574761, 125.724972)"><g/></g></g><g fill="#10e62c" fill-opacity="1"><g transform="translate(427.779321, 125.724972)"><g><path d="M 13.984375 0 L 13.984375 -86.625 L 1.25 -86.625 L 1.25 -107.21875 L 48.171875 -107.21875 L 48.171875 -86.625 L 35.453125 -86.625 L 35.453125 0 Z M 13.984375 0 "/></g></g></g><g fill="#10e62c" fill-opacity="1"><g transform="translate(477.202407, 125.724972)"><g/></g></g><g fill="#10e62c" fill-opacity="1"><g transform="translate(506.406967, 125.724972)"><g><path d="M 4.75 0 L 4.75 -107.21875 L 47.671875 -107.21875 L 47.671875 -86.5 L 26.578125 -86.5 L 26.578125 -65.65625 L 46.8125 -65.65625 L 46.8125 -45.4375 L 26.578125 -45.4375 L 26.578125 -20.84375 L 49.046875 -20.84375 L 49.046875 0 Z M 4.75 0 "/></g></g></g><g fill="#10e62c" fill-opacity="1"><g transform="translate(557.826949, 125.724972)"><g/></g></g><g fill="#10e62c" fill-opacity="1"><g transform="translate(587.031509, 125.724972)"><g><path d="M 4.75 0 L 4.75 -107.21875 L 47.671875 -107.21875 L 47.671875 -86.5 L 26.578125 -86.5 L 26.578125 -65.65625 L 46.8125 -65.65625 L 46.8125 -45.4375 L 26.578125 -45.4375 L 26.578125 -20.84375 L 49.046875 -20.84375 L 49.046875 0 Z M 4.75 0 "/></g></g></g><g fill="#10e62c" fill-opacity="1"><g transform="translate(638.451492, 125.724972)"><g/></g></g><g fill="#10e62c" fill-opacity="1"><g transform="translate(667.656051, 125.724972)"><g><path d="M 4.75 0 L 4.75 -107.21875 L 26.828125 -107.21875 L 36.6875 -55.921875 L 36.6875 -107.21875 L 57.40625 -107.21875 L 57.40625 0 L 36.4375 0 L 25.71875 -53.671875 L 25.71875 0 Z M 4.75 0 "/></g></g></g><g fill="#d90368" fill-opacity="1"><g transform="translate(293.205875, 202.984631)"><g><path d="M 30.625 1.296875 C 20.851562 1.296875 13.71875 -1.273438 9.21875 -6.421875 C 4.71875 -11.566406 2.46875 -19.421875 2.46875 -29.984375 L 2.46875 -41.671875 L 25.3125 -41.671875 L 25.3125 -29.984375 C 25.3125 -26.609375 25.742188 -23.988281 26.609375 -22.125 C 27.472656 -20.269531 29.203125 -19.34375 31.796875 -19.34375 C 33.617188 -19.34375 34.9375 -19.988281 35.75 -21.28125 C 36.570312 -22.582031 37.070312 -24.117188 37.25 -25.890625 C 37.425781 -27.671875 37.515625 -30.25 37.515625 -33.625 L 37.515625 -36.34375 C 37.515625 -45.945312 34.351562 -50.75 28.03125 -50.75 C 26.90625 -50.75 26.171875 -50.707031 25.828125 -50.625 L 25.828125 -70.609375 C 29.804688 -70.609375 32.789062 -71.492188 34.78125 -73.265625 C 36.769531 -75.046875 37.765625 -77.878906 37.765625 -81.765625 C 37.765625 -88.085938 35.945312 -91.25 32.3125 -91.25 C 30.0625 -91.25 28.613281 -90.6875 27.96875 -89.5625 C 27.320312 -88.4375 26.890625 -87.007812 26.671875 -85.28125 C 26.453125 -83.550781 26.300781 -82.296875 26.21875 -81.515625 L 26.21875 -78.140625 L 3.109375 -78.140625 L 2.984375 -82.03125 C 3.066406 -92.238281 5.488281 -99.742188 10.25 -104.546875 C 15.007812 -109.347656 22.320312 -111.75 32.1875 -111.75 C 51.132812 -111.75 60.609375 -101.84375 60.609375 -82.03125 C 60.609375 -76.226562 59.828125 -71.617188 58.265625 -68.203125 C 56.710938 -64.785156 54.035156 -62.382812 50.234375 -61 C 53.347656 -59.445312 55.660156 -57.519531 57.171875 -55.21875 C 58.691406 -52.925781 59.6875 -50.132812 60.15625 -46.84375 C 60.632812 -43.5625 60.875 -39.15625 60.875 -33.625 C 60.875 -22.113281 58.472656 -13.414062 53.671875 -7.53125 C 48.867188 -1.644531 41.1875 1.296875 30.625 1.296875 Z M 30.625 1.296875 "/></g></g></g><g fill="#d90368" fill-opacity="1"><g transform="translate(357.328211, 202.984631)"><g/></g></g><g fill="#d90368" fill-opacity="1"><g transform="translate(387.701949, 202.984631)"><g><path d="M 32.0625 1.03125 C 22.625 1.03125 15.351562 -1.625 10.25 -6.9375 C 5.144531 -12.257812 2.59375 -19.851562 2.59375 -29.71875 L 2.59375 -80.078125 C 2.59375 -90.640625 5.054688 -98.6875 9.984375 -104.21875 C 14.921875 -109.757812 22.28125 -112.53125 32.0625 -112.53125 C 41.925781 -112.53125 49.320312 -109.757812 54.25 -104.21875 C 59.1875 -98.6875 61.65625 -90.640625 61.65625 -80.078125 L 61.65625 -29.71875 C 61.65625 -19.769531 59.101562 -12.15625 54 -6.875 C 48.894531 -1.601562 41.582031 1.03125 32.0625 1.03125 Z M 32.0625 -19.46875 C 33.707031 -19.46875 35.046875 -20.222656 36.078125 -21.734375 C 37.117188 -23.253906 37.640625 -25.050781 37.640625 -27.125 L 37.640625 -82.15625 C 37.640625 -85.363281 37.269531 -87.8125 36.53125 -89.5 C 35.800781 -91.1875 34.3125 -92.03125 32.0625 -92.03125 C 29.8125 -92.03125 28.335938 -91.1875 27.640625 -89.5 C 26.953125 -87.8125 26.609375 -85.363281 26.609375 -82.15625 L 26.609375 -27.125 C 26.609375 -25.050781 27.101562 -23.253906 28.09375 -21.734375 C 29.09375 -20.222656 30.414062 -19.46875 32.0625 -19.46875 Z M 32.0625 -19.46875 "/></g></g></g></svg>